<svg xmlns="http://www.w3.org/2000/svg" xmlns:xlink="http://www.w3.org/1999/xlink" viewBox="0 0 227.62 37.68"><defs><style>.cls-1{fill:#004097;}.cls-2{fill:#ef8200;}.cls-3{fill:url(#linear-gradient);}.cls-4{fill:url(#linear-gradient-2);}.cls-5{fill:url(#linear-gradient-3);}.cls-6{fill:#1d2087;}.cls-7{fill:url(#linear-gradient-4);}.cls-8{fill:url(#linear-gradient-5);}.cls-9{fill:url(#linear-gradient-6);}.cls-10{fill:#e95504;}</style><linearGradient id="linear-gradient" y1="3.81" x2="29.36" y2="3.81" gradientUnits="userSpaceOnUse"><stop offset="0" stop-color="#009fe8"/><stop offset="0.5" stop-color="#1d2087"/></linearGradient><linearGradient id="linear-gradient-2" x1="29.36" y1="3.81" x2="0" y2="3.81" gradientUnits="userSpaceOnUse"><stop offset="0" stop-color="#009fe8"/><stop offset="1" stop-color="#1d2087"/></linearGradient><linearGradient id="linear-gradient-3" x1="29.36" y1="11.57" x2="0.67" y2="11.57" xlink:href="#linear-gradient-2"/><linearGradient id="linear-gradient-4" x1="5459.12" y1="5527.29" x2="5488.48" y2="5527.29" gradientTransform="translate(-5459.12 -5493.42)" gradientUnits="userSpaceOnUse"><stop offset="0" stop-color="#f9be00"/><stop offset="0.5" stop-color="#e95504"/></linearGradient><linearGradient id="linear-gradient-5" x1="5488.48" y1="5527.29" x2="5459.12" y2="5527.29" gradientTransform="translate(5488.48 5561.16) rotate(180)" gradientUnits="userSpaceOnUse"><stop offset="0" stop-color="#f9be00"/><stop offset="1" stop-color="#e95504"/></linearGradient><linearGradient id="linear-gradient-6" x1="5488.48" y1="5535.06" x2="5459.79" y2="5535.06" xlink:href="#linear-gradient-5"/></defs><g id="レイヤー_2" data-name="レイヤー 2"><g id="レイヤー_1-2" data-name="レイヤー 1"><polygon points="52.32 7.21 52.32 10.88 72.15 10.88 51.64 30.47 81.2 30.47 81.2 26.8 61.36 26.8 81.96 7.21 52.32 7.21"/><rect class="cls-1" x="97.03" y="17" width="20.76" height="3.67"/><path d="M96.38,7.21c-4.12,0-7.47,2.63-7.47,5.86V24.61c0,3.23,3.35,5.86,7.47,5.86h21.41V26.8H96.28c-1.62,0-2.92-1-2.92-2.19V13.07c0-1.18,1.3-2.15,2.91-2.19h21.52V7.21Z"/><rect class="cls-2" x="170.23" y="17" width="20.76" height="3.67"/><path d="M169.59,7.21c-4.13,0-7.48,2.63-7.48,5.86V24.61c0,3.23,3.35,5.86,7.48,5.86H191V26.8H169.48c-1.62,0-2.92-1-2.92-2.19V13.07c0-1.18,1.3-2.15,2.92-2.19H191V7.21Z"/><path d="M147,23.41c4.12,0,7.47-2.63,7.47-5.86V13.07c0-3.23-3.35-5.86-7.47-5.86H125.54V30.47H130V10.88h17c1.63,0,2.93,1,2.93,2.19v4.48c0,1.18-1.3,2.15-2.91,2.19H134.81l14,10.73h6.55l-9.2-7.06Z"/><path d="M203.19,13.07c0-1.18,1.3-2.15,2.91-2.19h14.35l3.62-2.81a9,9,0,0,0-3.92-.87H206.22c-4.13,0-7.48,2.63-7.48,5.86V24.61a4.83,4.83,0,0,0,.73,2.53l3.72-2.89Z"/><path d="M223.17,13.42V24.61c0,1.18-1.29,2.14-2.9,2.19H205.91l-3.62,2.8a8.94,8.94,0,0,0,3.93.88h13.93c4.12,0,7.47-2.63,7.47-5.86V13.07a4.83,4.83,0,0,0-.73-2.53Z"/><rect class="cls-3" width="29.36" height="7.61"/><path class="cls-4" d="M0,7.61C6.56,1.71,20.73,0,29.36,0H0Z"/><path class="cls-5" d="M29.36,7.61V0A29.36,29.36,0,0,0,.67,23.15H8.53A21.74,21.74,0,0,1,29.36,7.61Z"/><path class="cls-6" d="M28.37,7.64C8.66,8.13.67,23.15.67,23.15H8.53A21.74,21.74,0,0,1,28.37,7.64Z"/><rect class="cls-7" y="30.07" width="29.36" height="7.61" transform="translate(29.36 67.74) rotate(180)"/><path class="cls-8" d="M29.36,30.07C22.8,36,8.64,37.68,0,37.68H29.36Z"/><path class="cls-9" d="M0,30.07v7.61A29.36,29.36,0,0,0,28.69,14.53H20.84A21.77,21.77,0,0,1,0,30.07Z"/><path class="cls-10" d="M1,30c19.71-.49,27.7-15.51,27.7-15.51H20.84A21.76,21.76,0,0,1,1,30Z"/></g></g></svg>